# xmcd
#
# Track frame offsets:
#	150
#	12112
#	27637
#	40462
#	52987
#	68250
#	80812
#	92100
#	105975
#	124612
#	140737
#	154200
#
# Disc length: 2203 seconds
#
# Revision: 0
# Processed by: cddbd v1.5.2PL0 Copyright (c) Steve Scherf et al.
# Submitted via: FairStars CD Ripper 1.90
#
DISCID=9908990c
DTITLE=Teresa Ennis - Space
DYEAR=2007
DGENRE=Country
TTITLE0=Blue, Red and Gray
TTITLE1=The Lowlands
TTITLE2=Going to the Country
TTITLE3=I've Endured
TTITLE4=Ma Jolie
TTITLE5=Under The Moon
TTITLE6=Downstream
TTITLE7=Annie
TTITLE8=Song for Adam
TTITLE9=Train Leaves Here This Mornin'
TTITLE10=Can't Get It Out Of My Head
TTITLE11=Space
EXTD=
EXTT0=
EXTT1=
EXTT2=
EXTT3=
EXTT4=
EXTT5=
EXTT6=
EXTT7=
EXTT8=
EXTT9=
EXTT10=
EXTT11=
PLAYORDER=
